<svg xmlns="http://www.w3.org/2000/svg" viewBox="0 0 512 512">
  <defs>
    <linearGradient id="cover" x1="0" y1="0" x2="1" y2="1"><stop offset="0" stop-color="#65DDF4"/><stop offset="1" stop-color="#247ACB"/></linearGradient>
    <linearGradient id="pages" x1="0" y1="0" x2="0" y2="1"><stop offset="0" stop-color="#FFFDF0"/><stop offset="1" stop-color="#D9E6E8"/></linearGradient>
    <filter id="shadow" x="-25%" y="-25%" width="150%" height="165%"><feDropShadow dx="0" dy="18" stdDeviation="12" flood-color="#142B42" flood-opacity=".45"/></filter>
  </defs>
  <g filter="url(#shadow)" stroke-linejoin="round" stroke-linecap="round">
    <path d="M119 88H365Q401 88 401 124V392Q401 424 369 424H119Q91 424 91 396V116Q91 88 119 88Z" fill="#FFF1D0" stroke="#142337" stroke-width="38"/>
    <path d="M119 88H365Q401 88 401 124V392Q401 424 369 424H119Q91 424 91 396V116Q91 88 119 88Z" fill="url(#cover)" stroke="#FFF1D0" stroke-width="15"/>
    <path d="M130 119H354Q371 119 371 136V368Q371 387 352 387H130Z" fill="url(#pages)" stroke="#142337" stroke-width="17"/>
    <path d="M116 103V409" fill="none" stroke="#1E5E9D" stroke-width="28"/>
    <path d="M120 108V404" fill="none" stroke="#8EEAF6" stroke-width="8" opacity=".75"/>
    <path d="M195 210C214 163 252 146 294 162 286 207 252 232 204 229Z" fill="#55C95A" stroke="#173327" stroke-width="15"/>
    <path d="M209 237C244 225 276 199 297 164" fill="none" stroke="#173327" stroke-width="12"/>
    <path d="M175 278H329M175 318H307M175 358H282" fill="none" stroke="#75A9B5" stroke-width="13"/>
    <path d="M140 139H343" fill="none" stroke="#FFFFFF" stroke-width="9" opacity=".8"/>
  </g>
</svg>
