<svg xmlns="http://www.w3.org/2000/svg" viewBox="0 0 512 512">
  <defs>
    <linearGradient id="wall" x1="0" y1="0" x2="0" y2="1"><stop offset="0" stop-color="#7FEA62"/><stop offset="1" stop-color="#2D9F46"/></linearGradient>
    <linearGradient id="awning" x1="0" y1="0" x2="1" y2="1"><stop offset="0" stop-color="#FFF5C2"/><stop offset="1" stop-color="#F3C844"/></linearGradient>
    <linearGradient id="wood" x1="0" y1="0" x2="0" y2="1"><stop offset="0" stop-color="#D99445"/><stop offset="1" stop-color="#8B4C27"/></linearGradient>
    <filter id="shadow" x="-25%" y="-25%" width="150%" height="165%"><feDropShadow dx="0" dy="18" stdDeviation="12" flood-color="#102314" flood-opacity=".45"/></filter>
  </defs>
  <g filter="url(#shadow)" stroke-linejoin="round" stroke-linecap="round">
    <path d="M118 202H394V405Q394 430 369 430H143Q118 430 118 405Z" fill="#FFF5DA" stroke="#18231A" stroke-width="34"/>
    <path d="M118 202H394V405Q394 430 369 430H143Q118 430 118 405Z" fill="url(#wall)" stroke="#FFF1CF" stroke-width="15"/>
    <path d="M154 254H273V343H154Z" fill="#75D9E6" stroke="#18231A" stroke-width="17"/>
    <path d="M291 248H356V430H291Z" fill="url(#wood)" stroke="#18231A" stroke-width="17"/>
    <circle cx="339" cy="337" r="8" fill="#FFD95C"/>
    <path d="M88 193 126 104H386L424 193Z" fill="url(#awning)" stroke="#18231A" stroke-width="34"/>
    <path d="M88 193 126 104H386L424 193Z" fill="url(#awning)" stroke="#FFF1CF" stroke-width="15"/>
    <path d="M151 104 130 193M220 104 214 193M292 104 298 193M361 104 382 193" fill="none" stroke="#42B850" stroke-width="31"/>
    <path d="M83 193H429" fill="none" stroke="#18231A" stroke-width="25"/>
    <path d="M88 193Q88 226 123 226T158 193Q158 226 193 226T228 193Q228 226 263 226T298 193Q298 226 333 226T368 193Q368 226 403 226T429 193" fill="url(#awning)" stroke="#18231A" stroke-width="15"/>
    <path d="M112 371H400V421H112Z" fill="url(#wood)" stroke="#18231A" stroke-width="20"/>
    <path d="M126 385H386M133 122H364" fill="none" stroke="#FFFBE5" stroke-width="9" opacity=".72"/>
  </g>
</svg>
